<?xml version="1.0" encoding="utf-8"?>
<!-- Generator: Adobe Illustrator 27.5.0, SVG Export Plug-In . SVG Version: 6.00 Build 0)  -->
<svg version="1.1" xmlns="http://www.w3.org/2000/svg" xmlns:xlink="http://www.w3.org/1999/xlink" x="0px" y="0px"
	 viewBox="0 0 500 500" style="enable-background:new 0 0 500 500;" xml:space="preserve">
<g id="BACKGROUND">
	<rect style="fill:#FFFFFF;" width="500" height="500"/>
</g>
<g id="OBJECTS">
	<g>
		<linearGradient id="SVGID_1_" gradientUnits="userSpaceOnUse" x1="227.577" y1="287.2819" x2="273.0139" y2="117.9268">
			<stop  offset="0.281" style="stop-color:#E64A00"/>
			<stop  offset="1" style="stop-color:#FFC400"/>
		</linearGradient>
		<circle style="fill:url(#SVGID_1_);" cx="250.295" cy="202.604" r="87.65"/>
		<g>
			
				<linearGradient id="SVGID_00000000914740343134905130000015671079503970362011_" gradientUnits="userSpaceOnUse" x1="296.137" y1="308.3667" x2="295.5265" y2="109.9807">
				<stop  offset="0" style="stop-color:#040702"/>
				<stop  offset="1" style="stop-color:#8A5713"/>
			</linearGradient>
			<path style="fill:url(#SVGID_00000000914740343134905130000015671079503970362011_);" d="M355.678,271.965l1.077-4.846
				c0,0-12.745-0.359-22.617-3.949c-9.872-3.59-17.946-11.566-17.946-11.566s3.279,0.952,9.718,1.224
				c7.128,0.301,11.682-0.527,11.682-0.527s-3.137-1.906-4.214-4.419c0,0,3.621,1.978,8.696,2.134
				c6.112,0.188,10.553-0.309,10.553-0.309l1.395-6.619c0,0-16.245-0.472-33.885-12.409c-6.432-4.352-9.081-8.414-9.081-8.414
				s4.737,3.738,12.07,5.113c5.648,1.059,10.293,0.609,10.293,0.609s-1.974-2.333-2.692-4.667c0,0,2.872,0.898,3.949,0.898
				c1.077,0,3.231,0.538,3.231,0.538l0.359-3.77l4.846-0.18l2.513-4.487c0,0-15.078-1.589-23.874-5.551
				c-8.796-3.962-12.135-8.103-12.135-8.103s4.014,1.176,6.7,1.357c4.579,0.309,6.365-0.876,6.365-0.876s-2.274-1.002-3.172-2.438
				c0,0,3.075,0.859,7.546,0.483c5.354-0.45,8.07-1.022,8.07-1.022l1.228-4.874c0,0-11.548-1.086-21.719-7.69
				c-6.016-3.907-7.827-8.251-7.827-8.251s1.3,0.884,5.249,2.499c3.949,1.616,6.283,2.154,6.283,2.154s-1.795-3.231-2.154-4.846
				c0,0,3.77,0.718,5.923,0l0.802-4.452c0,0-12.666-4.726-19.498-16.305c0,0,5.148,2.47,9.708,1.392c0,0-1.742-1.319-2.269-1.819
				c-0.869-0.825-2.149-1.863-2.149-1.863s7.303,0.403,10.893-0.674l0.965-4.137c0,0-7.025-0.578-14.155-5.979
				c-3.669-2.78-5.388-7.242-5.444-7.39c0.038,0.082,0.403,0.573,3.943,1.505c2.61,0.687,5.277-0.123,5.277-0.123
				s-3.59-1.974-4.129-3.051c0,0,4.488,0,7.18-0.718l0.747-3.326c0,0-10.078-1.716-14.476-12.891
				c-0.957-2.432-3.498-13.192-3.498-13.192s-2.541,10.76-3.498,13.192c-4.397,11.175-14.249,12.515-14.249,12.515l0.521,3.701
				c2.693,0.718,7.18,0.718,7.18,0.718c-0.539,1.077-4.129,3.051-4.129,3.051s2.667,0.81,5.277,0.123
				c3.541-0.932,3.906-1.423,3.943-1.505c-0.056,0.148-1.775,4.61-5.444,7.39c-7.13,5.401-14.27,5.215-14.27,5.215l1.08,4.901
				c3.59,1.077,10.893,0.674,10.893,0.674s-1.279,1.038-2.149,1.863c-0.527,0.501-2.269,1.819-2.269,1.819
				c4.559,1.078,9.707-1.392,9.707-1.392c-6.832,11.579-21.185,16.039-21.185,16.039l2.49,4.718c2.154,0.718,5.924,0,5.924,0
				c-0.359,1.615-2.154,4.846-2.154,4.846s2.333-0.538,6.282-2.154c3.949-1.615,5.249-2.499,5.249-2.499s-1.811,4.344-7.827,8.251
				c-10.171,6.605-22.546,6.894-22.546,6.894l2.055,5.67c0,0,7.182,4.551,17.114,4.691c3.382,0.048,7.177-0.952,7.177-0.952
				s-2.119,2.896-10.915,6.858c-8.796,3.962-23.874,5.551-23.874,5.551l2.513,4.487l4.846,0.18l0.359,3.77
				c0,0,2.154-0.538,3.231-0.538s3.949-0.898,3.949-0.898c-0.718,2.334-2.692,4.667-2.692,4.667s4.645,0.45,10.293-0.609
				c7.334-1.375,12.07-5.113,12.07-5.113s-2.649,4.062-9.081,8.414c-17.639,11.936-35.522,12.382-35.522,12.382l2.392,5.242
				c0,0,3.461,1.256,8.538,1.224c5.719-0.036,11.845-1.636,11.845-1.636c-1.077,2.513-4.129,4.847-4.129,4.847
				s3.164,0.749,9.693,0.179c4.841-0.422,13.823-3.749,13.823-3.749s-8.492,10.836-20.642,14.001
				c-10.166,2.648-22.617,3.949-22.617,3.949l1.077,4.846c9.709,5.107,18.614,2.304,18.614,2.304
				c-0.718,1.257-7.305,3.978-7.305,3.978s6.81,2.775,16.374,2.122c7.255-0.495,9.653-2.84,9.653-2.84
				c0,2.154-2.872,7.898-2.872,7.898s2.333-0.18,8.795-2.154c6.462-1.975,9.801-4.314,9.801-4.314v29.949h6.608h6.608V278.96
				c0,0,3.339,2.339,9.801,4.314c6.462,1.974,8.796,2.154,8.796,2.154s-2.872-5.744-2.872-7.898c0,0,2.398,2.346,9.653,2.84
				c9.564,0.652,16.374-2.122,16.374-2.122s-6.587-2.722-7.305-3.978C337.065,274.269,345.969,277.072,355.678,271.965z"/>
			
				<linearGradient id="SVGID_00000157990198866081935990000002532222326360387261_" gradientUnits="userSpaceOnUse" x1="332.7943" y1="310.721" x2="332.1742" y2="109.2163">
				<stop  offset="0" style="stop-color:#040702"/>
				<stop  offset="1" style="stop-color:#8A5713"/>
			</linearGradient>
			<path style="fill:url(#SVGID_00000157990198866081935990000002532222326360387261_);" d="M304.876,259.639
				c10.921-6.659,14.111-13.028,14.111-13.028s-6.877,1.684-10.667,1.965c-3.79,0.281-7.579-0.14-7.579-0.14s2.386-1.825,3.228-3.79
				c0,0-5.474,1.684-9.404,2.246c-3.93,0.561-6.176,0.14-6.176,0.14l-2.016-4.684c0,0,14.089-1.377,27.223-11.615
				c7.299-5.69,8.756-11.66,8.756-11.66s-3.289,1.808-7.455,3.492c-4.894,1.979-9.885,2.034-9.885,2.034s1.544-1.825,2.105-3.649
				c0,0-2.246,0.702-3.088,0.702c-0.842,0-2.526,0.421-2.526,0.421l-0.281-2.948l-3.789-0.14l-1.965-3.509
				c0,0,13.261-3.745,20.932-11.214c5.404-5.262,7.54-11.172,7.54-11.172s-1.988,1.57-4.987,2.358
				c-4.5,1.182-6.353,0.137-6.353,0.137s1.572-0.829,1.852-2.092c0,0-2.948,0.562-4.632,0l-2.602-2.463
				c0,0,10.285-2.73,17.887-11.732c1.719-2.036,3.004-5.109,3.004-5.109s-2.044,1.106-3.474,1.374
				c-2.793,0.524-4.807,0.45-4.807,0.45s-0.281-2.386-2.386-2.947l-0.729-2.469c0,0,5.639-1.753,9.815-6.45
				c4.986-5.607,6.13-12.855,6.13-12.855s2.065,7.628,6.13,12.855c4.103,5.275,9.879,6.067,9.879,6.067l-0.793,2.852
				c-2.105,0.561-5.614,0.561-5.614,0.561c0.421,0.842,3.228,2.386,3.228,2.386s-2.014,0.073-4.807-0.45
				c-1.43-0.268-3.474-1.374-3.474-1.374s1.247,3.107,3.004,5.109c6.486,7.39,17.677,11.367,17.677,11.367l-1.582,2.828
				c-1.684,0.562-4.632,0-4.632,0c0.281,1.263,2.737,3.444,2.737,3.444s-2.731,0.289-5.965-0.529
				c-3.755-0.95-7.771-3.486-7.771-3.486s2.837,6.078,8.241,11.34c7.671,7.469,20.932,11.214,20.932,11.214l-1.965,3.509
				l-3.789,0.14l-0.281,2.948c0,0-1.596-0.036-2.439-0.036s-1.605-0.286-1.605-0.286c0.561,1.825,0.535,2.848,0.535,2.848
				s-4.991-0.055-9.885-2.034c-4.166-1.684-7.455-3.492-7.455-3.492s1.457,5.97,8.756,11.66
				c13.134,10.239,26.392,11.388,26.392,11.388l-1.185,4.911c0,0-2.246,0.421-6.176-0.14c-3.93-0.561-9.404-2.246-9.404-2.246
				c0.842,1.965,3.228,3.79,3.228,3.79s-3.79,0.421-7.579,0.14c-3.789-0.281-10.667-1.965-10.667-1.965s3.19,6.369,14.111,13.028
				c9.713,5.923,19.715,7.298,19.715,7.298l-0.842,3.79c0,0-5.562,1.997-15.656,2.32c-3.115,0.1-7.081-0.777-7.081-0.777
				c0,1.404,1.684,3.368,1.684,3.368c-2.667,0.281-8.141-0.561-8.141-0.561c0,1.684,2.246,6.176,2.246,6.176
				s-1.825-0.14-6.877-1.684c-5.053-1.544-7.066-3.373-7.066-3.373v32.713h-11.529v-32.713c0,0-3.049-2.11-8.102-0.566
				c-5.053,1.544-5.841,5.623-5.841,5.623s2.246-4.491,2.246-6.176c0,0-5.474,0.842-8.141,0.561c0,0,1.684-1.965,1.684-3.368
				c0,0-3.967,0.876-7.081,0.777c-10.094-0.324-15.656-2.32-15.656-2.32l-0.842-3.79
				C285.162,266.936,295.164,265.561,304.876,259.639z"/>
			
				<linearGradient id="SVGID_00000183968133284197396230000002551906096309746064_" gradientUnits="userSpaceOnUse" x1="204.7086" y1="308.648" x2="204.0981" y2="110.262">
				<stop  offset="0" style="stop-color:#040702"/>
				<stop  offset="1" style="stop-color:#8A5713"/>
			</linearGradient>
			<path style="fill:url(#SVGID_00000183968133284197396230000002551906096309746064_);" d="M144.913,271.965l-1.077-4.846
				c0,0,12.745-0.359,22.617-3.949c9.872-3.59,17.323-12.461,17.323-12.461s-2.655,1.846-9.095,2.119
				c-7.128,0.301-11.682-0.527-11.682-0.527s3.137-1.906,4.214-4.419c0,0-3.621,1.978-8.696,2.134
				c-6.112,0.188-10.553-0.309-10.553-0.309l-1.395-6.619c0,0,16.245-0.472,33.885-12.409c6.432-4.352,9.081-8.414,9.081-8.414
				s-4.736,3.738-12.07,5.113c-5.648,1.059-10.294,0.609-10.294,0.609s1.975-2.333,2.693-4.667c0,0-2.872,0.898-3.949,0.898
				s-3.231,0.538-3.231,0.538l-0.359-3.77l-4.846-0.18l-2.513-4.487c0,0,15.078-1.589,23.874-5.551
				c8.796-3.962,12.135-8.103,12.135-8.103s-4.014,1.176-6.7,1.357c-4.579,0.309-6.365-0.876-6.365-0.876s2.274-1.002,3.172-2.438
				c0,0-3.075,0.859-7.546,0.483c-5.354-0.45-8.07-1.022-8.07-1.022l-1.228-4.874c0,0,11.548-1.086,21.719-7.69
				c6.016-3.907,7.827-8.251,7.827-8.251s-1.3,0.884-5.249,2.499c-3.949,1.616-6.283,2.154-6.283,2.154s1.795-3.231,2.154-4.846
				c0,0-3.77,0.718-5.924,0l-0.802-4.452c0,0,12.666-4.726,19.498-16.305c0,0-5.148,2.47-9.708,1.392c0,0,1.742-1.319,2.269-1.819
				c0.869-0.825,2.149-1.863,2.149-1.863s-7.303,0.403-10.893-0.674l-0.965-4.137c0,0,7.025-0.578,14.155-5.979
				c3.669-2.78,5.388-7.242,5.444-7.39c-0.037,0.082-0.403,0.573-3.943,1.505c-2.61,0.687-5.277-0.123-5.277-0.123
				s3.59-1.974,4.129-3.051c0,0-4.488,0-7.18-0.718l-0.747-3.326c0,0,10.078-1.716,14.476-12.891
				c0.957-2.432,3.498-13.192,3.498-13.192s2.541,10.76,3.498,13.192c4.397,11.175,14.249,12.515,14.249,12.515l-0.521,3.701
				c-2.693,0.718-7.18,0.718-7.18,0.718c0.539,1.077,4.129,3.051,4.129,3.051s-2.667,0.81-5.277,0.123
				c-3.541-0.932-3.906-1.423-3.943-1.505c0.056,0.148,1.775,4.61,5.444,7.39c7.13,5.401,14.27,5.215,14.27,5.215l-1.08,4.901
				c-3.59,1.077-10.893,0.674-10.893,0.674s1.279,1.038,2.149,1.863c0.527,0.501,2.269,1.819,2.269,1.819
				c-4.559,1.078-9.708-1.392-9.708-1.392c6.832,11.579,21.186,16.039,21.186,16.039l-2.49,4.718c-2.154,0.718-5.924,0-5.924,0
				c0.359,1.615,2.154,4.846,2.154,4.846s-2.333-0.538-6.283-2.154c-3.949-1.615-5.249-2.499-5.249-2.499s1.811,4.344,7.827,8.251
				c10.171,6.605,22.545,6.894,22.545,6.894l-2.054,5.67c0,0-12.595,3.888-17.114,4.691c-3.33,0.592-7.177-0.952-7.177-0.952
				s2.119,2.896,10.915,6.858c8.796,3.962,23.874,5.551,23.874,5.551l-2.513,4.487l-4.846,0.18l-0.359,3.77
				c0,0-2.154-0.538-3.231-0.538c-1.077,0-3.949-0.898-3.949-0.898c0.718,2.334,2.693,4.667,2.693,4.667s-4.645,0.45-10.294-0.609
				c-7.334-1.375-12.07-5.113-12.07-5.113s2.649,4.062,9.081,8.414c17.639,11.936,35.521,12.382,35.521,12.382l-2.391,5.242
				c0,0-3.462,1.256-8.538,1.224c-5.718-0.036-11.845-1.636-11.845-1.636c1.077,2.513,4.129,4.847,4.129,4.847
				s-3.164,0.749-9.693,0.179c-4.841-0.422-13.823-3.749-13.823-3.749s8.492,10.836,20.642,14.001
				c10.166,2.648,22.617,3.949,22.617,3.949l-1.077,4.846c-9.709,5.107-18.614,2.304-18.614,2.304
				c0.718,1.257,7.305,3.978,7.305,3.978s-6.81,2.775-16.374,2.122c-7.255-0.495-9.653-2.84-9.653-2.84
				c0,2.154,2.872,7.898,2.872,7.898s-2.333-0.18-8.796-2.154c-6.462-1.975-9.801-4.314-9.801-4.314v29.949h-6.608h-6.608V278.96
				c0,0-3.339,2.339-9.801,4.314c-6.462,1.974-8.796,2.154-8.796,2.154s2.872-5.744,2.872-7.898c0,0-2.398,2.346-9.653,2.84
				c-9.564,0.652-16.374-2.122-16.374-2.122s6.587-2.722,7.305-3.978C163.526,274.269,154.622,277.072,144.913,271.965z"/>
			
				<linearGradient id="SVGID_00000103945327066764839830000010411397293796424325_" gradientUnits="userSpaceOnUse" x1="168.0676" y1="311.2357" x2="167.4476" y2="109.731">
				<stop  offset="0" style="stop-color:#040702"/>
				<stop  offset="1" style="stop-color:#8A5713"/>
			</linearGradient>
			<path style="fill:url(#SVGID_00000103945327066764839830000010411397293796424325_);" d="M195.714,259.639
				c-10.921-6.659-14.111-13.028-14.111-13.028s6.878,1.684,10.667,1.965c3.79,0.281,7.579-0.14,7.579-0.14s-2.386-1.825-3.228-3.79
				c0,0,5.474,1.684,9.404,2.246c3.93,0.561,6.176,0.14,6.176,0.14l2.016-4.684c0,0-14.089-1.377-27.223-11.615
				c-7.299-5.69-8.756-11.66-8.756-11.66s3.289,1.808,7.455,3.492c4.894,1.979,9.885,2.034,9.885,2.034s-1.544-1.825-2.105-3.649
				c0,0,2.246,0.702,3.088,0.702c0.842,0,2.526,0.421,2.526,0.421l0.281-2.948l3.789-0.14l1.965-3.509
				c0,0-13.261-3.745-20.932-11.214c-5.404-5.262-7.54-11.172-7.54-11.172s1.988,1.57,4.986,2.358
				c4.501,1.182,6.353,0.137,6.353,0.137s-1.572-0.829-1.852-2.092c0,0,2.948,0.562,4.632,0l2.602-2.463
				c0,0-10.285-2.73-17.887-11.732c-1.719-2.036-3.004-5.109-3.004-5.109s2.044,1.106,3.474,1.374
				c2.793,0.524,4.807,0.45,4.807,0.45l3.115-5.417c0,0-5.639-1.753-9.815-6.45c-4.986-5.607-6.13-12.855-6.13-12.855
				s-2.065,7.628-6.13,12.855c-4.103,5.275-9.879,6.067-9.879,6.067l0.793,2.852c2.105,0.561,5.614,0.561,5.614,0.561
				c-0.421,0.842-3.228,2.386-3.228,2.386s2.014,0.073,4.807-0.45c1.43-0.268,3.474-1.374,3.474-1.374s-1.247,3.107-3.004,5.109
				c-6.487,7.39-17.677,11.367-17.677,11.367l1.582,2.828c1.684,0.562,4.632,0,4.632,0c-0.281,1.263-2.737,3.444-2.737,3.444
				s2.731,0.289,5.965-0.529c3.756-0.95,7.771-3.486,7.771-3.486s-2.837,6.078-8.242,11.34
				c-7.671,7.469-20.932,11.214-20.932,11.214l1.965,3.509l3.79,0.14l0.281,2.948c0,0,1.597-0.036,2.439-0.036
				c0.842,0,1.605-0.286,1.605-0.286c-0.561,1.825-0.535,2.848-0.535,2.848s4.991-0.055,9.885-2.034
				c4.166-1.684,7.455-3.492,7.455-3.492s-1.457,5.97-8.756,11.66c-13.134,10.239-26.392,11.388-26.392,11.388l1.185,4.911
				c0,0,2.246,0.421,6.176-0.14c3.93-0.561,9.404-2.246,9.404-2.246c-0.842,1.965-3.228,3.79-3.228,3.79s3.79,0.421,7.579,0.14
				c3.79-0.281,10.667-1.965,10.667-1.965s-3.19,6.369-14.111,13.028c-9.713,5.923-19.715,7.298-19.715,7.298l0.842,3.79
				c0,0,5.562,1.997,15.656,2.32c3.115,0.1,7.081-0.777,7.081-0.777c0,1.404-1.684,3.368-1.684,3.368
				c2.667,0.281,8.141-0.561,8.141-0.561c0,1.684-2.246,6.176-2.246,6.176s1.825-0.14,6.877-1.684
				c5.053-1.544,7.066-3.373,7.066-3.373v32.713h11.529v-32.713c0,0,3.635-1.958,8.687-0.414c5.053,1.544,5.256,5.471,5.256,5.471
				s-2.246-4.491-2.246-6.176c0,0,5.474,0.842,8.141,0.561c0,0-1.684-1.965-1.684-3.368c0,0,3.967,0.876,7.081,0.777
				c10.094-0.324,15.656-2.32,15.656-2.32l0.842-3.79C215.429,266.936,205.427,265.561,195.714,259.639z"/>
		</g>
		
			<linearGradient id="SVGID_00000171718571336324475890000007021395542640962953_" gradientUnits="userSpaceOnUse" x1="250.2942" y1="308.507" x2="249.6838" y2="110.1209">
			<stop  offset="0" style="stop-color:#040702"/>
			<stop  offset="1" style="stop-color:#8A5713"/>
		</linearGradient>
		<polygon style="fill:url(#SVGID_00000171718571336324475890000007021395542640962953_);" points="330.587,308.909 
			170.004,308.909 250.295,162.084 		"/>
		<polygon style="fill:#FFFFFF;" points="325.312,308.909 175.279,308.909 250.295,170.595 		"/>
		
			<linearGradient id="SVGID_00000034804054545508931790000013327924311345542569_" gradientUnits="userSpaceOnUse" x1="232.9537" y1="335.6834" x2="299.4956" y2="220.4294">
			<stop  offset="0" style="stop-color:#3F6F9E"/>
			<stop  offset="1" style="stop-color:#51A0CC"/>
		</linearGradient>
		<polygon style="fill:url(#SVGID_00000034804054545508931790000013327924311345542569_);" points="314.012,308.909 
			186.578,308.909 250.295,192.024 		"/>
		<g>
			<rect x="237.562" y="256.422" style="fill:#FFFFFF;" width="11.263" height="23.722"/>
			<rect x="252.436" y="256.422" style="fill:#FFFFFF;" width="10.592" height="23.722"/>
			<rect x="237.562" y="283.755" style="fill:#FFFFFF;" width="11.263" height="20.111"/>
			<rect x="252.436" y="283.755" style="fill:#FFFFFF;" width="10.592" height="20.111"/>
		</g>
	</g>
</g>
<g id="TEXTS">
	<g>
		<g>
			
				<text transform="matrix(1.0084 0 0 1 95.4136 363.1787)" style="fill:#1F0000; font-family:'Montserrat-ExtraBold'; font-size:54.4567px;">CABINS</text>
		</g>
		
			<text transform="matrix(1.0084 0 0 1 140.4966 389.668)" style="fill:#1F0000;stroke:#1F0000;stroke-width:1.3575;stroke-linecap:round;stroke-linejoin:round;stroke-miterlimit:10; font-family:'Montserrat-ExtraLight'; font-size:16.1284px;">TAGLINE HERE</text>
	</g>
</g>
</svg>
